<svg width="18" height="19" viewBox="0 0 18 19" fill="none" xmlns="http://www.w3.org/2000/svg">
<path d="M9.00001 1.67453e-08C8.44801 1.67453e-08 8.00001 0.4477 8.00001 1V11.562L5 8.594L3.594 10L8.28101 14.719C8.67201 15.109 9.328 15.109 9.719 14.719L14.406 10L13 8.594L10 11.562V1C10 0.4477 9.55201 -9.99833e-05 9.00001 1.67453e-08ZM1 12C0.448 12 0 12.448 0 13V15C0 17.209 1.791 19 4 19H14C16.209 19 18 17.209 18 15V13C18 12.448 17.552 12 17 12C16.448 12 16 12.448 16 13V15C16 16.105 15.105 17 14 17H4C2.895 17 2 16.105 2 15V13C2 12.448 1.552 12 1 12Z" fill="#2A343D"/>
</svg>
