<svg width="49" height="49" viewBox="0 0 49 49" fill="none" xmlns="http://www.w3.org/2000/svg">
<path d="M24.3281 0C37.7642 0 48.6562 10.8921 48.6562 24.3281C48.6562 37.7642 37.7642 48.6562 24.3281 48.6562C10.8921 48.6562 0 37.7642 0 24.3281C2.9378e-05 10.8921 10.8921 2.93799e-05 24.3281 0ZM24.3271 11.3535C23.4477 11.3535 22.5679 11.4416 21.7139 11.6162C20.8796 11.7857 20.0593 12.0393 19.2764 12.3701C18.5072 12.6966 17.7644 13.0986 17.0713 13.5674C16.3852 14.0317 15.7394 14.5629 15.1533 15.1475C14.5668 15.7351 14.033 16.3776 13.5693 17.0645C13.1018 17.7553 12.6987 18.4973 12.373 19.2666C12.041 20.0479 11.7869 20.8683 11.6152 21.7021C11.4416 22.5543 11.3525 23.4325 11.3525 24.3105C11.3526 25.1879 11.4417 26.0639 11.6152 26.918C11.7869 27.7518 12.041 28.5709 12.373 29.3535C12.6987 30.1221 13.1018 30.863 13.5693 31.5537C14.0331 32.2401 14.5667 32.8847 15.1533 33.4717C15.7392 34.056 16.3853 34.5878 17.0713 35.0527C17.7644 35.5196 18.5072 35.9212 19.2764 36.2471C20.0594 36.5773 20.8796 36.8312 21.7139 37.002C22.5679 37.1779 23.4477 37.2676 24.3271 37.2676C25.2058 37.2676 26.0852 37.1778 26.9404 37.002C27.7736 36.8312 28.5942 36.5773 29.3779 36.2471C30.1471 35.9212 30.8889 35.5196 31.582 35.0527C32.2681 34.5877 32.9147 34.0562 33.502 33.4717C34.088 32.8846 34.6218 32.2402 35.085 31.5537C35.555 30.863 35.9569 30.1221 36.2812 29.3535C36.6132 28.5709 36.867 27.7518 37.0381 26.918C37.2135 26.064 37.3027 25.1879 37.3027 24.3105C37.3027 23.4326 37.2135 22.5543 37.0381 21.7021C36.867 20.8683 36.6132 20.0479 36.2812 19.2666C35.9569 18.4974 35.555 17.7553 35.085 17.0645C34.6219 16.3775 34.0879 15.7351 33.502 15.1475C32.9147 14.5628 32.2682 14.0318 31.582 13.5674C30.889 13.0986 30.147 12.6965 29.3779 12.3701C28.5942 12.0393 27.7735 11.7858 26.9404 11.6162C26.0852 11.4416 25.2058 11.3535 24.3271 11.3535Z" fill="white"/>
<path d="M26.2864 26.0958C27.8454 30.1419 28.4894 33.5301 28.6536 34.4971C27.3237 35.062 25.8619 35.3741 24.3274 35.3741C21.7576 35.3741 19.398 34.4931 17.5168 33.0323C17.5399 32.9822 19.6753 28.3951 26.2131 26.1192C26.2371 26.1104 26.2618 26.1039 26.2864 26.0958ZM28.3625 25.5831C31.9391 25.0105 35.0397 25.9902 35.2678 26.0635C34.7749 29.1472 33.0077 31.8098 30.5198 33.4864C30.407 32.8196 29.816 29.5714 28.3625 25.5831ZM24.6321 22.3819C24.9494 23.003 25.2525 23.6331 25.5305 24.2618C25.385 24.3035 25.2382 24.3466 25.094 24.3946C19.1358 26.3185 16.1032 31.6591 16.0852 31.7032C14.3203 29.7439 13.2464 27.1528 13.2463 24.3106C13.2463 24.1916 13.2519 24.076 13.2551 23.9571C13.4515 23.9646 18.9267 24.0875 24.6321 22.3819ZM32.884 17.2813C34.4388 19.166 35.3792 21.5734 35.4045 24.1964C35.2442 24.1635 31.4933 23.3587 27.6868 23.837C27.6089 23.6473 27.5293 23.4573 27.4475 23.2637C27.2176 22.724 26.9683 22.1869 26.7112 21.6592C31.079 19.878 32.8575 17.3191 32.884 17.2813ZM19.5999 14.3018C19.7476 14.4988 21.7964 17.2755 23.7141 20.6778C18.394 22.0893 13.7758 22.0319 13.4836 22.0294C14.2028 18.6028 16.5099 15.7589 19.5999 14.3018ZM24.3274 13.2462C27.1328 13.2462 29.694 14.2883 31.6448 16.0059C31.6126 16.0538 30.0331 18.4481 25.8586 20.0108C23.9636 16.5363 21.882 13.7785 21.7161 13.5557C22.553 13.3545 23.4271 13.2462 24.3274 13.2462Z" fill="white"/>
</svg>
