<svg width="14" height="16" viewBox="0 0 14 16" fill="none" xmlns="http://www.w3.org/2000/svg">
<path d="M1 15H13M2.2495 8.92334C1.92971 9.2557 1.75008 9.70602 1.75 10.1755V12.6667H4.16725C4.62025 12.6667 5.0545 12.48 5.37475 12.1472L12.4998 4.75452C12.8194 4.42211 12.9989 3.9718 12.9989 3.50233C12.9989 3.03286 12.8194 2.58254 12.4998 2.25013L11.7963 1.51903C11.6376 1.35442 11.4492 1.22385 11.2419 1.13479C11.0345 1.04573 10.8123 0.999928 10.5878 1C10.3634 1.00007 10.1412 1.04602 9.93391 1.13521C9.72661 1.2244 9.53831 1.35509 9.37975 1.51981L2.2495 8.92334Z" stroke="white" stroke-width="1.5" stroke-linecap="round" stroke-linejoin="round"/>
</svg>
