<svg width="20" height="16" viewBox="0 0 20 16" fill="none" xmlns="http://www.w3.org/2000/svg">
<path d="M4.00001 0C1.791 0 0 1.791 0 4V12C0 14.209 1.791 16 4.00001 16H16C18.209 16 20 14.209 20 12V4C20 1.791 18.209 0 16 0H4.00001ZM4.00001 2H16C17.008 2 17.841 2.74 17.979 3.71C17.021 4.603 15.597 5.69899 14.656 6.37499C12.491 7.92999 10.586 8.99999 10 8.99999C9.41401 8.99999 7.50901 7.93099 5.344 6.37499C4.403 5.69899 3.47801 4.968 2.78101 4.375C2.48401 4.122 2.264 3.918 2.094 3.75C2.232 2.78 2.992 2 4.00001 2ZM2.01001 6.354C4.54802 8.407 8.26701 10.988 10 11C11.129 11.008 13.06 9.92999 15.03 8.56899C16.049 7.86399 17.183 7.02699 18.001 6.33999L18 12C18 13.105 17.105 14 16 14H4.00001C2.895 14 2 13.105 2 12L2.01001 6.354Z" fill="white"/>
</svg>
