<svg width="49" height="49" viewBox="0 0 49 49" fill="none" xmlns="http://www.w3.org/2000/svg">
<path d="M24.3284 0C10.8939 0 0 11.1673 0 24.9439C0 35.965 6.97082 45.3151 16.6372 48.6135C17.8531 48.8444 18.2995 48.0724 18.2995 47.4135C18.2995 46.8187 18.2769 44.8537 18.2664 42.7694C11.4983 44.2783 10.0701 39.8263 10.0701 39.8263C8.96341 36.9431 7.36886 36.1764 7.36886 36.1764C5.16154 34.6283 7.53524 34.6601 7.53524 34.6601C9.97823 34.8356 11.2646 37.2306 11.2646 37.2306C13.4344 41.044 16.9559 39.9416 18.3442 39.3042C18.5625 37.6924 19.193 36.5912 19.8888 35.9687C14.4851 35.3379 8.80468 33.1991 8.80468 23.6411C8.80468 20.9177 9.75504 18.6925 11.3113 16.9457C11.0587 16.317 10.226 13.7803 11.547 10.3444C11.547 10.3444 13.5899 9.67404 18.239 12.9013C20.1796 12.3486 22.2609 12.0715 24.3284 12.062C26.3959 12.0715 28.4787 12.3486 30.423 12.9013C35.0664 9.67404 37.1065 10.3444 37.1065 10.3444C38.4308 13.7803 37.5976 16.317 37.345 16.9457C38.9049 18.6925 39.8489 20.9177 39.8489 23.6411C39.8489 33.2218 34.1576 35.3313 28.7402 35.9488C29.6128 36.7229 30.3903 38.241 30.3903 40.5682C30.3903 43.9053 30.3621 46.5915 30.3621 47.4135C30.3621 48.0773 30.8001 48.8551 32.0332 48.6102C41.6944 45.3081 48.6564 35.9612 48.6564 24.9439C48.6564 11.1673 37.764 0 24.3284 0Z" fill="white"/>
</svg>
