<svg width="20" height="16" viewBox="0 0 20 16" fill="none" xmlns="http://www.w3.org/2000/svg">
<path d="M8.02475 0.000240542C7.19376 -0.00875946 6.45376 0.235246 5.80576 0.656247C5.42376 0.904247 5.12674 1.17924 4.96274 1.37524C4.85874 1.48824 0.98977 5.75323 0.83677 5.93823C-0.36423 7.39023 -0.19023 8.82425 0.83677 10.1562C1.09577 10.4912 1.79076 11.2253 2.80576 12.3123C2.84176 12.3503 4.80276 14.4283 4.93076 14.5623C5.03976 14.7073 5.34275 15.0083 5.74375 15.2812C6.40475 15.7332 7.15775 15.9932 8.02475 16.0002H15.9937C18.1997 16.0002 19.9937 14.2092 19.9937 12.0002C19.9937 11.0002 19.9937 5.00024 19.9937 4.00024C19.9937 1.79124 18.2007 0.000240542 15.9937 0.000240542H8.02475ZM8.02475 2.00024H15.9937C17.0977 2.00024 17.9937 2.89624 17.9937 4.00024C17.9937 5.00024 17.9937 11.0002 17.9937 12.0002C17.9937 13.1042 17.0977 14.0002 15.9937 14.0002H8.02475C7.59375 13.9962 7.22375 13.8672 6.86875 13.6252C6.65175 13.4772 6.48376 13.3172 6.43076 13.2502C6.24276 13.0472 4.30976 11.0062 4.27476 10.9692C3.31776 9.94324 2.63276 9.19923 2.43076 8.93823C1.91876 8.27323 1.88076 7.84624 2.39976 7.21924C2.52276 7.07124 3.27176 6.21624 4.39976 4.96924C4.40676 4.96124 6.36375 2.83023 6.49375 2.68823C6.56575 2.60323 6.70076 2.47324 6.89976 2.34424C7.23775 2.12424 7.60875 1.99624 8.02475 2.00024ZM9.02475 5.00024C8.76975 5.00024 8.50076 5.08625 8.30576 5.28125C7.91676 5.67125 7.91676 6.32924 8.30576 6.71924L9.55576 8.00024L8.30576 9.28125C7.91676 9.67125 7.91676 10.3292 8.30576 10.7192C8.69476 11.1092 9.32274 11.1092 9.71274 10.7192L10.9937 9.43823L12.2748 10.7192C12.6638 11.1092 13.3237 11.1092 13.7127 10.7192C14.1017 10.3292 14.1017 9.67125 13.7127 9.28125L12.4308 8.00024L13.7127 6.71924C14.1017 6.32924 14.1017 5.67125 13.7127 5.28125C13.5177 5.08625 13.2487 5.00024 12.9937 5.00024C12.7387 5.00024 12.4688 5.08625 12.2748 5.28125L10.9937 6.56225L9.71274 5.28125C9.51774 5.08625 9.27975 5.00024 9.02475 5.00024Z" fill="white"/>
</svg>
