<svg width="49" height="49" viewBox="0 0 49 49" fill="none" xmlns="http://www.w3.org/2000/svg">
<path d="M24.3281 0C37.7642 0 48.6562 10.8921 48.6562 24.3281C48.6562 37.7642 37.7642 48.6562 24.3281 48.6562C10.8921 48.6562 0 37.7642 0 24.3281C2.9378e-05 10.8921 10.8921 2.93799e-05 24.3281 0ZM24.3271 11.3535C20.8055 11.3535 20.3632 11.3687 18.9795 11.4316C17.5982 11.4949 16.6551 11.7133 15.8301 12.0342C14.9769 12.3655 14.2533 12.809 13.5322 13.5303C12.8105 14.2515 12.3667 14.976 12.0342 15.8291C11.7126 16.6542 11.4938 17.5972 11.4316 18.9775C11.3697 20.3615 11.3535 20.8044 11.3535 24.3281C11.3535 27.8518 11.3689 28.2929 11.4316 29.6768C11.4952 31.058 11.7136 32.0012 12.0342 32.8262C12.3659 33.6796 12.8098 34.4038 13.5312 35.125C14.2521 35.8465 14.9764 36.2907 15.8291 36.6221C16.6546 36.9429 17.5977 37.1614 18.9785 37.2246C20.3624 37.2876 20.8047 37.3037 24.3281 37.3037C27.8519 37.3037 28.2929 37.2876 29.6768 37.2246C31.0581 37.1614 32.0026 36.9429 32.8281 36.6221C33.6811 36.2907 34.4042 35.8466 35.125 35.125C35.8467 34.4038 36.2896 33.6793 36.6221 32.8262C36.941 32.0009 37.1597 31.0574 37.2246 29.6768C37.2868 28.2931 37.3037 27.8516 37.3037 24.3281C37.3037 20.8047 37.2868 20.3622 37.2246 18.9785C37.1597 17.5973 36.941 16.6541 36.6221 15.8291C36.2896 14.9758 35.8467 14.2514 35.125 13.5303C34.4033 12.8086 33.6813 12.3653 32.8271 12.0342C32 11.7133 31.0561 11.4949 29.6748 11.4316C28.2912 11.3687 27.8504 11.3535 24.3271 11.3535Z" fill="white"/>
<path d="M23.1648 13.691C23.5102 13.6905 23.8959 13.691 24.3289 13.691C27.7932 13.691 28.204 13.7041 29.572 13.7662C30.837 13.8241 31.5238 14.0349 31.9812 14.2125C32.5867 14.4477 33.0186 14.7291 33.4724 15.1832C33.9265 15.6373 34.2074 16.0699 34.4431 16.6754C34.6207 17.1322 34.8328 17.8187 34.8904 19.0836C34.9526 20.4514 34.9656 20.8625 34.9656 24.3248C34.9656 27.7876 34.9526 28.1992 34.8904 29.567C34.8325 30.8319 34.6207 31.5184 34.4431 31.9752C34.208 32.5806 33.9264 33.0117 33.4724 33.4655C33.0183 33.9196 32.587 34.201 31.9812 34.4362C31.5244 34.6146 30.8371 34.8256 29.572 34.8834C28.2043 34.9456 27.7931 34.9586 24.3289 34.9586C20.8644 34.9586 20.4535 34.9456 19.0857 34.8834C17.8208 34.825 17.1341 34.6137 16.6765 34.4362C16.0711 34.201 15.6384 33.9196 15.1843 33.4655C14.7303 33.0114 14.4493 32.5799 14.2136 31.9742C14.036 31.5175 13.824 30.8309 13.7664 29.566C13.7042 28.1982 13.6921 27.7868 13.6921 24.3219C13.6921 20.8572 13.7042 20.4484 13.7664 19.0807C13.8242 17.8156 14.036 17.1289 14.2136 16.6715C14.4488 16.0661 14.7302 15.6334 15.1843 15.1793C15.6384 14.7252 16.0711 14.4443 16.6765 14.2086C17.1338 14.0302 17.8208 13.8195 19.0857 13.7614C20.2826 13.7073 20.7468 13.6908 23.1648 13.6881V13.691ZM24.3289 17.6647C20.6495 17.665 17.666 20.6484 17.6658 24.3278C17.6658 28.0076 20.65 30.9899 24.3298 30.9899C28.0095 30.9897 30.9919 28.0075 30.9919 24.3278C30.9917 20.6482 28.0085 17.6647 24.3289 17.6647ZM31.0964 15.8541C30.3116 15.9338 29.6981 16.5959 29.698 17.402C29.698 18.2616 30.396 18.9596 31.2556 18.9596C32.1152 18.9595 32.8123 18.2615 32.8123 17.402C32.8121 16.5425 32.1151 15.8454 31.2556 15.8453L31.0964 15.8541Z" fill="white"/>
<path d="M24.3294 20.0032C26.718 20.0032 28.6545 21.9395 28.6545 24.3283C28.6545 26.7168 26.718 28.6533 24.3294 28.6533C21.9407 28.6533 20.0044 26.7168 20.0044 24.3283C20.0044 21.9395 21.9407 20.0032 24.3294 20.0032Z" fill="white"/>
</svg>
