<svg width="26" height="29" viewBox="0 0 26 29" fill="none" xmlns="http://www.w3.org/2000/svg">
<path d="M13.1877 0.791504C8.29514 0.791504 4.92393 4.183 4.92393 9.104C4.92393 9.77593 4.92393 11.8333 4.92393 11.8748C4.92393 12.3209 4.69997 12.6243 3.93392 13.2603C3.84701 13.3323 3.48272 13.6468 3.37447 13.7368C1.63163 15.186 0.773851 16.5437 0.792031 18.8019C0.810349 21.0851 2.66061 22.9318 4.92393 22.9582H9.29823C9.29823 22.9582 9.05582 23.8047 9.05582 24.3436C9.05582 26.6392 10.9055 28.4998 13.1877 28.4998C15.4699 28.4998 17.3196 26.6392 17.3196 24.3436C17.3196 23.8047 17.0882 22.9582 17.0882 22.9582H21.4515C23.7103 22.9665 25.5862 21.0948 25.5834 18.8019C25.5807 16.5603 24.7212 15.179 23.001 13.7368C22.888 13.6412 22.4886 13.3351 22.3977 13.2603C21.6485 12.6313 21.4515 12.3154 21.4515 11.8748C21.4515 10.1431 21.4515 9.104 21.4515 9.104C21.4515 4.183 18.0799 0.791504 13.1877 0.791504ZM13.1877 3.56234C16.5593 3.56234 18.6969 5.7125 18.6969 9.104C18.6969 9.104 18.6969 10.1431 18.6969 11.8748C18.6969 13.3462 19.3139 14.2744 20.6334 15.3813C20.7381 15.4686 21.1802 15.8177 21.2794 15.9009C22.4335 16.8693 22.8274 17.5246 22.8288 18.8019C22.8302 19.5556 22.1884 20.1901 21.4515 20.1873C21.1912 20.186 17.1819 20.186 13.1877 20.1873C9.19397 20.1887 5.2166 20.1901 4.92393 20.1873C4.15512 20.1776 3.55283 19.5708 3.54663 18.8019C3.53644 17.5273 3.93021 16.8707 5.09609 15.9009C5.19126 15.8219 5.59853 15.4645 5.69866 15.3813C7.03905 14.2675 7.67853 13.36 7.67853 11.8748C7.67853 11.8333 7.67853 9.77593 7.67853 9.104C7.67853 5.7125 9.81651 3.56234 13.1877 3.56234ZM13.1877 22.9582C13.948 22.9582 14.565 23.5788 14.565 24.3436C14.565 25.1083 13.948 25.729 13.1877 25.729C12.4275 25.729 11.8104 25.1083 11.8104 24.3436C11.8104 23.5788 12.4275 22.9582 13.1877 22.9582Z" fill="white"/>
</svg>
