<svg width="49" height="49" viewBox="0 0 49 49" fill="none" xmlns="http://www.w3.org/2000/svg">
<path d="M17.248 47.873C19.6 48.5835 21.9765 49 24.5 49C30.9978 49 37.2295 46.4188 41.8241 41.8241C46.4188 37.2295 49 30.9978 49 24.5C49 21.2826 48.3663 18.0967 47.1351 15.1243C45.9038 12.1518 44.0992 9.45092 41.8241 7.17588C39.5491 4.90085 36.8482 3.09619 33.8757 1.86495C30.9033 0.633711 27.7174 0 24.5 0C21.2826 0 18.0967 0.633711 15.1243 1.86495C12.1518 3.09619 9.45092 4.90085 7.17588 7.17588C2.58124 11.7705 0 18.0022 0 24.5C0 34.9125 6.5415 43.855 15.778 47.383C15.5575 45.472 15.337 42.3115 15.778 40.131L18.5955 28.028C18.5955 28.028 17.885 26.607 17.885 24.353C17.885 20.972 19.992 18.4485 22.393 18.4485C24.5 18.4485 25.48 19.992 25.48 21.9765C25.48 24.0835 24.0835 27.097 23.373 29.988C22.9565 32.389 24.647 34.496 27.097 34.496C31.458 34.496 34.839 29.841 34.839 23.275C34.839 17.395 30.625 13.377 24.5735 13.377C17.6645 13.377 13.5975 18.522 13.5975 23.9365C13.5975 26.0435 14.2835 28.175 15.4105 29.5715C15.631 29.7185 15.631 29.9145 15.5575 30.282L14.847 32.9525C14.847 33.369 14.5775 33.516 14.161 33.222C11.025 31.85 9.212 27.391 9.212 23.7895C9.212 16.0475 14.7 9.016 25.284 9.016C33.712 9.016 40.278 15.0675 40.278 23.1035C40.278 31.5315 35.0595 38.2935 27.587 38.2935C25.2105 38.2935 22.883 37.0195 22.05 35.525L20.4085 41.3315C19.845 43.4385 18.3015 46.256 17.248 47.9465V47.873Z" fill="white"/>
</svg>
