<svg width="9" height="9" viewBox="0 0 9 9" fill="none" xmlns="http://www.w3.org/2000/svg">
<path d="M0.714704 3.52114C0.534392 3.70145 0.404999 3.95247 0.405 4.22824C0.405707 4.77908 0.870975 5.24435 1.42181 5.24505L3.2115 5.26698L3.23343 7.05667C3.23413 7.60751 3.6994 8.07277 4.25024 8.07348C4.80107 8.07419 5.24512 7.63014 5.24512 7.0786L5.24512 5.26698L7.05674 5.26698C7.60758 5.26769 8.07426 4.80101 8.07355 4.25017C8.07284 3.69933 7.60758 3.23407 7.05674 3.23336L5.24443 3.23405L5.24512 1.42174C5.24442 0.870906 4.77915 0.405638 4.22831 0.404931C3.95254 0.404931 3.70152 0.534322 3.52121 0.714635C3.34089 0.894947 3.21079 1.14668 3.2115 1.42174L3.2115 3.23336L1.39989 3.23336C1.12411 3.23336 0.895016 3.34082 0.714704 3.52114Z" fill="white"/>
</svg>
