<svg width="33" height="30" viewBox="0 0 33 30" fill="none" xmlns="http://www.w3.org/2000/svg">
<path d="M9.984 0.0413609C8.90076 0.228586 7.72391 0.877192 6.9817 1.70634C6.72092 1.99386 5.96533 3.23757 4.21343 6.26662C0.495653 12.7059 0.455533 12.7794 0.274994 13.2809C-0.0927715 14.2973 -0.0927715 15.6145 0.28168 16.6376C0.388667 16.9385 1.65244 19.2053 3.53807 22.4684C6.9282 28.3459 6.9282 28.3459 7.95126 29.0213C8.55974 29.4225 9.19497 29.6966 9.85695 29.837C10.539 29.9775 22.4278 29.9775 23.1299 29.8303C24.1797 29.6164 25.049 29.1349 25.8113 28.366C26.373 27.7909 26.5 27.5836 31.8426 18.2825C32.2171 17.6339 32.5982 16.885 32.6918 16.6242C33.0596 15.6145 33.0596 14.2906 32.6918 13.2742C32.5982 13.0134 32.2572 12.3448 31.9362 11.7831C25.9784 1.43887 26.3863 2.12759 25.8113 1.53917C25.1292 0.843758 24.4673 0.455933 23.4041 0.121601C23.1099 0.0279865 22.3142 0.0146141 16.684 0.00123978C13.1735 -0.00544548 10.1579 0.0146141 9.984 0.0413609ZM22.8758 2.20783C23.0698 2.25464 23.384 2.38837 23.5779 2.48867C24.3536 2.90993 24.3536 2.90993 27.5565 8.46653C29.2014 11.315 30.6056 13.7958 30.6792 13.983C30.8597 14.4511 30.8597 15.4541 30.6792 15.9221C30.5053 16.3635 24.6144 26.5673 24.387 26.8147C24.0995 27.1223 23.4509 27.5168 22.9828 27.6572C22.5683 27.7842 22.3476 27.7909 16.4834 27.7909C10.6192 27.7909 10.3986 27.7842 9.984 27.6572C9.51593 27.5168 8.86733 27.1223 8.5798 26.8147C8.35914 26.5673 2.46153 16.3701 2.28767 15.9221C2.10713 15.4541 2.10713 14.4511 2.28767 13.983C2.36123 13.7958 3.76542 11.315 5.41033 8.46653C8.61324 2.90324 8.61324 2.90993 9.39557 2.48867C10.0776 2.11422 9.8837 2.12759 16.45 2.12091C21.4048 2.11422 22.6017 2.13428 22.8758 2.20783Z" fill="white"/>
</svg>
