<svg width="49" height="49" viewBox="0 0 49 49" fill="none" xmlns="http://www.w3.org/2000/svg">
<path d="M24.3281 0C37.7642 0 48.6562 10.8921 48.6562 24.3281C48.6562 37.7642 37.7642 48.6562 24.3281 48.6562C10.8921 48.6562 0 37.7642 0 24.3281C2.9378e-05 10.8921 10.8921 2.93799e-05 24.3281 0ZM24.0664 12.1689C23.4903 12.169 22.3377 12.25 21.0996 12.7949C20.3918 13.1063 19.7548 13.527 19.207 14.0459C18.5539 14.6642 18.0219 15.427 17.626 16.3125C17.0462 17.6091 17.1834 19.7929 17.2939 21.5479L17.2949 21.5508C17.3068 21.7386 17.3187 21.9348 17.3301 22.126C17.245 22.1649 17.1073 22.206 16.9043 22.2061C16.5772 22.2061 16.1878 22.1019 15.748 21.8965C15.6188 21.8365 15.4714 21.8057 15.3086 21.8057C15.0468 21.8057 14.7707 21.8831 14.5312 22.0234C14.2302 22.1997 14.0354 22.4484 13.9824 22.7246C13.9476 22.9074 13.9491 23.2694 14.3516 23.6357C14.573 23.8374 14.8986 24.0231 15.3184 24.1885C15.4285 24.2317 15.5589 24.2736 15.6973 24.3174C16.1778 24.4697 16.9051 24.6995 17.0947 25.1445C17.1907 25.3701 17.1498 25.6668 16.9727 26.0254C16.968 26.0352 16.9632 26.0456 16.959 26.0557C16.914 26.1602 16.5005 27.0933 15.6533 28.0771C15.1714 28.6372 14.6403 29.1053 14.0762 29.4688C13.3877 29.9124 12.6428 30.2028 11.8623 30.3311C11.5558 30.3812 11.3364 30.6534 11.3535 30.9629C11.3588 31.0519 11.3797 31.1407 11.416 31.2266L11.417 31.2285C11.541 31.5175 11.8288 31.763 12.2959 31.9795C12.8668 32.2438 13.7204 32.4666 14.833 32.6406C14.8892 32.7474 14.9479 33.0149 14.9883 33.1982C15.0306 33.3932 15.0748 33.5937 15.1377 33.8066C15.2055 34.0373 15.3811 34.3133 15.833 34.3135C16.0043 34.3135 16.2016 34.2746 16.4297 34.2305C16.7638 34.1651 17.2208 34.0762 17.791 34.0762C18.1072 34.0762 18.4358 34.1036 18.7656 34.1582C19.4013 34.2638 19.9489 34.6507 20.583 35.0977C21.5113 35.752 22.5625 36.4922 24.168 36.4922C24.2117 36.4922 24.2555 36.4903 24.2988 36.4873C24.3519 36.4898 24.4179 36.4922 24.4873 36.4922C26.0933 36.4922 27.144 35.7514 28.0713 35.0977L28.0723 35.0957C28.7066 34.6491 29.255 34.2637 29.8906 34.1582C30.2202 34.1037 30.548 34.0762 30.8643 34.0762C31.409 34.0762 31.8404 34.1458 32.2256 34.2207C32.4769 34.27 32.6724 34.293 32.8223 34.293L32.8369 34.2939H32.8516C33.1822 34.2939 33.4258 34.1126 33.5186 33.7959C33.5801 33.5875 33.6236 33.3916 33.667 33.1934C33.7048 33.0214 33.7651 32.7455 33.8213 32.6377C34.9346 32.4634 35.7884 32.2418 36.3594 31.9775C36.8255 31.762 37.1126 31.5164 37.2373 31.2285C37.2747 31.1422 37.2968 31.0529 37.3018 30.9619C37.3193 30.653 37.0997 30.3802 36.793 30.3301C33.324 29.7598 31.7609 26.2057 31.6963 26.0547C31.6921 26.0448 31.6875 26.035 31.6826 26.0254C31.5053 25.6664 31.4644 25.3696 31.5605 25.1436C31.7498 24.6989 32.4772 24.4686 32.958 24.3164C33.0969 24.2728 33.2278 24.2314 33.3369 24.1885C33.8101 24.0021 34.1489 23.7999 34.3721 23.5703C34.6386 23.2966 34.6907 23.034 34.6875 22.8623C34.6794 22.447 34.3609 22.0782 33.8545 21.8975C33.6835 21.827 33.4885 21.7891 33.29 21.7891C33.1548 21.7891 32.9542 21.8082 32.7646 21.8965C32.3588 22.0858 31.9947 22.1894 31.6826 22.2041C31.5168 22.1957 31.4005 22.1592 31.3252 22.125C31.3347 21.9631 31.3456 21.7965 31.3564 21.623L31.3604 21.5488C31.4715 19.7927 31.6095 17.6071 31.0293 16.3096C30.6317 15.421 30.098 14.6567 29.4424 14.0371C28.8925 13.5179 28.2533 13.0973 27.543 12.7861C26.3066 12.2453 25.154 12.1641 24.5771 12.1641H24.5127C24.3529 12.1657 24.09 12.1687 24.0664 12.1689Z" fill="white"/>
</svg>
