<svg width="26" height="25" viewBox="0 0 26 25" fill="none" xmlns="http://www.w3.org/2000/svg">
<path d="M15.7136 2.87772C15.7136 3.64093 15.4093 4.37288 14.8675 4.91256C14.3257 5.45223 13.5909 5.75541 12.8248 5.75541C12.0586 5.75541 11.3238 5.45223 10.782 4.91256C10.2402 4.37288 9.93587 3.64093 9.93587 2.87772C9.93587 2.11451 10.2402 1.38255 10.782 0.842879C11.3238 0.303207 12.0586 2.18693e-05 12.8248 2.18693e-05C13.5909 2.18693e-05 14.3257 0.303207 14.8675 0.842879C15.4093 1.38255 15.7136 2.11451 15.7136 2.87772ZM26 22.1223C26 22.8855 25.6956 23.6175 25.1539 24.1571C24.6121 24.6968 23.8773 25 23.1111 25C22.3449 25 21.6101 24.6968 21.0684 24.1571C20.5266 23.6175 20.2222 22.8855 20.2222 22.1223C20.2222 21.3591 20.5266 20.6271 21.0684 20.0875C21.6101 19.5478 22.3449 19.2446 23.1111 19.2446C23.8773 19.2446 24.6121 19.5478 25.1539 20.0875C25.6956 20.6271 26 21.3591 26 22.1223ZM5.77777 22.1223C5.77777 22.8855 5.47341 23.6175 4.93164 24.1571C4.38987 24.6968 3.65507 25 2.88889 25C2.12271 25 1.38791 24.6968 0.846134 24.1571C0.304363 23.6175 0 22.8855 0 22.1223C0 21.3591 0.304363 20.6271 0.846134 20.0875C1.38791 19.5478 2.12271 19.2446 2.88889 19.2446C3.65507 19.2446 4.38987 19.5478 4.93164 20.0875C5.47341 20.6271 5.77777 21.3591 5.77777 22.1223ZM17.3333 14.9281C17.3333 16.0729 16.8768 17.1708 16.0641 17.9803C15.2515 18.7898 14.1493 19.2446 13 19.2446C11.8507 19.2446 10.7485 18.7898 9.93587 17.9803C9.12321 17.1708 8.66667 16.0729 8.66667 14.9281C8.66667 13.7832 9.12321 12.6853 9.93587 11.8758C10.7485 11.0663 11.8507 10.6115 13 10.6115C14.1493 10.6115 15.2515 11.0663 16.0641 11.8758C16.8768 12.6853 17.3333 13.7832 17.3333 14.9281ZM12.8248 5.75541L13 10.6115L12.8248 5.75541ZM20.6556 20.3957L16.6111 17.518L20.6556 20.3957ZM5.34444 20.3957L9.38889 17.518L5.34444 20.3957Z" fill="white"/>
</svg>
