<svg width="49" height="49" viewBox="0 0 49 49" fill="none" xmlns="http://www.w3.org/2000/svg">
<path d="M24.3281 0C37.7644 4.89918e-05 48.6562 10.8924 48.6562 24.3281C48.656 37.7651 37.7643 48.6562 24.3281 48.6562C10.8925 48.6562 0.000205711 37.7651 0 24.3281C0 10.8924 10.8924 0 24.3281 0ZM34.9824 33.0039C28.5701 29.0856 20.6206 28.1747 11.3535 30.293C10.5357 30.4792 10.0258 31.2924 10.2129 32.1084C10.3988 32.9241 11.2123 33.4351 12.0283 33.248C20.4966 31.3139 27.6876 32.1021 33.4004 35.5938C34.1147 36.0306 35.0481 35.8067 35.4854 35.0898C35.9222 34.3753 35.6972 33.4406 34.9824 33.0039ZM37.8379 25.8574C30.3289 21.2428 19.3445 19.9447 10.5088 22.626C9.50741 22.931 8.94104 23.9884 9.24316 24.9912C9.54793 25.9925 10.6076 26.5577 11.6104 26.2549C19.3451 23.907 29.3149 25.0712 35.8525 29.0898C36.7441 29.638 37.9117 29.3576 38.4619 28.4648C39.0098 27.5742 38.7292 26.4064 37.8379 25.8574ZM41.041 17.6533C32.0132 12.2945 17.7275 11.791 9.13379 14.3994C7.93105 14.765 7.25391 16.0354 7.61816 17.2383C7.98226 18.4401 9.25285 19.1186 10.4551 18.7539C17.9412 16.4818 30.8768 16.9102 38.7188 21.5674C39.7973 22.2093 41.1945 21.8526 41.8359 20.7715C42.4768 19.692 42.1226 18.2953 41.041 17.6533Z" fill="white"/>
</svg>
