<svg width="26" height="26" viewBox="0 0 26 26" fill="none" xmlns="http://www.w3.org/2000/svg">
<path d="M17.3195 0.25C15.5734 0.25 13.9451 1.39595 13.437 3.0074L2.16906 3.00463C1.40837 3.00463 0.791748 3.62167 0.791748 4.38194C0.791748 5.14222 1.40837 5.75926 2.16906 5.75926L13.437 5.75791C14.0542 7.44512 15.5734 8.51389 17.3195 8.51389C19.0657 8.51389 20.6004 7.44238 21.2283 5.7469L24.2061 5.75926C24.9668 5.75926 25.5834 5.14222 25.5834 4.38194C25.5834 3.62167 24.9668 3.00463 24.2061 3.00463H21.2166C20.5535 1.32568 19.0657 0.25 17.3195 0.25ZM17.3195 3.00463C18.0802 3.00463 18.6968 3.62167 18.6968 4.38194C18.6968 5.14222 18.0802 5.75926 17.3195 5.75926C16.5588 5.75926 15.9422 5.14222 15.9422 4.38194C15.9422 3.62167 16.5588 3.00463 17.3195 3.00463ZM9.05564 8.51389C7.24034 8.51389 5.72088 9.64331 5.1661 11.2713C4.97245 11.2837 2.16906 11.2685 2.16906 11.2685C1.40837 11.2685 0.791748 11.8856 0.791748 12.6458C0.791748 13.4061 1.40837 14.0231 2.16906 14.0231C2.16906 14.0231 4.99586 13.9942 5.17202 14.0121C5.7268 15.6401 7.24034 16.7778 9.05564 16.7778C10.8018 16.7778 12.2981 15.7076 12.9526 14.0273L24.2061 14.0231C24.9668 14.0231 25.5834 13.4061 25.5834 12.6458C25.5834 11.8856 24.9668 11.2685 24.2061 11.2685L12.9454 11.2562C12.3418 9.61302 10.8018 8.51389 9.05564 8.51389ZM9.05564 11.2685C9.81633 11.2685 10.433 11.8856 10.433 12.6458C10.433 13.4061 9.81633 14.0231 9.05564 14.0231C8.29495 14.0231 7.67832 13.4061 7.67832 12.6458C7.67832 11.8856 8.29495 11.2685 9.05564 11.2685ZM17.3195 16.7778C15.5734 16.7778 13.9761 17.9278 13.4361 19.5186L2.16906 19.5324C1.40837 19.5324 0.791748 20.1494 0.791748 20.9097C0.791748 21.67 1.40837 22.287 2.16906 22.287L13.4157 22.2884C13.9871 23.9205 15.5734 25.0417 17.3195 25.0417C19.0657 25.0417 20.5712 23.9494 21.2345 22.2884L24.2061 22.287C24.9668 22.287 25.5834 21.67 25.5834 20.9097C25.5834 20.1494 24.9668 19.5324 24.2061 19.5324L21.222 19.5242C20.6274 17.8948 19.0657 16.7778 17.3195 16.7778ZM17.3195 19.5324C18.0802 19.5324 18.6968 20.1494 18.6968 20.9097C18.6968 21.67 18.0802 22.287 17.3195 22.287C16.5588 22.287 15.9422 21.67 15.9422 20.9097C15.9422 20.1494 16.5588 19.5324 17.3195 19.5324Z" fill="white"/>
</svg>
