<svg width="19" height="19" viewBox="0 0 19 19" fill="none" xmlns="http://www.w3.org/2000/svg">
<path d="M9.5 0C4.25315 0 0 4.25334 0 9.5C0 10.8623 0.303989 12.2191 0.891089 13.4781C0.112089 17.5014 0.0294556 17.8719 0.0294556 17.8719C-0.0978444 18.5308 0.468339 19.0951 1.12859 18.9704C1.12859 18.9704 1.48864 18.908 5.55179 18.1391C6.77824 18.722 8.1377 19 9.5 19C14.7469 19 19 14.7467 19 9.5C19 4.25334 14.7469 0 9.5 0ZM9.5 1.9C13.6971 1.9 17.1 5.30261 17.1 9.5C17.1 13.6974 13.6971 17.1 9.5 17.1C8.30585 17.1 7.15919 16.8196 6.11609 16.2984C5.92989 16.2057 5.72566 16.1707 5.52141 16.2094C2.14891 16.8478 2.4168 16.8097 2.1375 16.8625C2.1926 16.5798 2.14509 16.8732 2.79109 13.5375C2.83099 13.331 2.79584 13.1019 2.70179 12.9141C2.17169 11.8637 1.9 10.7042 1.9 9.5C1.9 5.30261 5.3029 1.9 9.5 1.9ZM6.82859 4.75C5.93749 4.75 4.75 5.9375 4.75 6.82812C4.75 7.97591 5.9375 10.0938 7.125 11.2812C7.25325 11.409 7.5905 11.7472 7.71875 11.875C8.90625 13.0625 11.0238 14.25 12.1714 14.25C13.0625 14.25 14.25 13.0625 14.25 12.1719C14.25 11.2812 13.0625 10.0938 12.1714 10.0938C11.875 10.0938 10.8005 10.7079 10.6875 10.6875C9.7413 10.5167 8.5101 9.25566 8.3125 8.3125C8.28495 8.18083 8.90625 7.125 8.90625 6.82812C8.90625 5.9375 7.71874 4.75 6.82859 4.75Z" fill="white"/>
</svg>
