<svg width="49" height="49" viewBox="0 0 49 49" fill="none" xmlns="http://www.w3.org/2000/svg">
<path d="M24.3281 0C37.7642 0 48.6562 10.8921 48.6562 24.3281C48.6562 37.7642 37.7642 48.6562 24.3281 48.6562C10.8921 48.6562 0 37.7642 0 24.3281C2.9378e-05 10.8921 10.8921 2.93799e-05 24.3281 0ZM24.3281 15.4082C24.2992 15.4082 16.2095 15.409 14.1895 15.9648C13.073 16.2713 12.1939 17.174 11.8955 18.3203C11.3559 20.3883 11.3535 24.6927 11.3535 24.7334C11.3535 24.7334 11.3534 29.0695 11.8955 31.1475C12.194 32.2936 13.0731 33.1964 14.1895 33.5029C16.2095 34.0586 24.2992 34.0596 24.3281 34.0596C24.3281 34.0596 32.4433 34.0596 34.4668 33.5029C35.5831 33.1964 36.4622 32.2936 36.7607 31.1475C37.303 29.0695 37.3037 24.7334 37.3037 24.7334C37.3037 24.6927 37.3005 20.3883 36.7607 18.3203C36.4623 17.174 35.5832 16.2713 34.4668 15.9648C32.4433 15.408 24.3281 15.4082 24.3281 15.4082Z" fill="white"/>
<path d="M21.8953 29.1937V21.0843L28.3828 25.1391L21.8953 29.1937Z" fill="white"/>
</svg>
