<svg width="49" height="49" viewBox="0 0 49 49" fill="none" xmlns="http://www.w3.org/2000/svg">
<path d="M24.3281 0C37.7642 0 48.6562 10.8921 48.6562 24.3281C48.6562 37.7642 37.7642 48.6562 24.3281 48.6562C10.8921 48.6562 0 37.7642 0 24.3281C2.9378e-05 10.8921 10.8921 2.93799e-05 24.3281 0ZM31.4121 20.0283C29.6743 20.0283 28.2628 20.5721 27.1719 21.6514C26.0842 22.7335 25.5391 24.2882 25.5391 26.3154C25.5391 28.4769 26.1407 30.0402 27.3506 30.999C28.5543 31.9592 29.9474 32.4375 31.5264 32.4375C33.4381 32.4375 34.9264 31.8689 35.9883 30.7324C36.6687 30.016 37.0528 29.3096 37.1367 28.6172H33.9707C33.7876 28.9604 33.5737 29.2287 33.3311 29.4229C32.8902 29.7793 32.3153 29.9579 31.6123 29.958C30.944 29.958 30.3744 29.8111 29.9014 29.5176C29.1203 29.0465 28.7111 28.2231 28.6592 27.0508H37.2998C37.3135 26.0408 37.2802 25.2634 37.1963 24.7275C37.0528 23.811 36.7387 23.0039 36.249 22.3086C35.712 21.5199 35.0296 20.9424 34.2012 20.5781C33.3742 20.2124 32.445 20.0283 31.4121 20.0283ZM11.3525 32.0391H18.5791C19.3937 32.039 20.1476 31.9691 20.8447 31.8262C21.5419 31.6817 22.1442 31.418 22.6553 31.0312C23.1099 30.6941 23.4889 30.2793 23.791 29.7871C24.2686 29.0435 24.5059 28.2014 24.5059 27.2637C24.5058 26.3547 24.2968 25.5814 23.8818 24.9463C23.4623 24.3096 22.8461 23.8438 22.0283 23.5488C22.5667 23.278 22.9743 22.9774 23.252 22.6494C23.7478 22.0624 23.9931 21.284 23.9932 20.3193C23.9932 19.3816 23.7476 18.5771 23.2578 17.9043C22.4415 16.8087 21.0574 16.2473 19.1016 16.2188H11.3525V32.0391ZM27.9346 18.9248H34.8066V16.9561H27.9346V18.9248Z" fill="white"/>
<path d="M18.498 25.0742C19.1843 25.0802 19.7202 25.1703 20.1016 25.3418C20.7836 25.6504 21.123 26.2152 21.123 27.04C21.123 28.0123 20.7717 28.6685 20.0684 29.0146C19.6823 29.1998 19.1391 29.293 18.4434 29.293H14.5498V25.0742H18.498ZM31.4141 22.5527C32.1464 22.5527 32.7585 22.7617 33.2559 23.1816C33.7472 23.6046 34.0246 24.2194 34.0811 25.0322H28.7363C28.8492 24.2706 29.1256 23.6662 29.5635 23.2207C30.0014 22.7753 30.6208 22.5527 31.4141 22.5527ZM18.041 18.9658C18.8084 18.9658 19.4402 19.0488 19.9375 19.2129C20.511 19.4508 20.7979 19.9368 20.7979 20.6758C20.7978 21.338 20.5797 21.8016 20.1465 22.0635C19.7101 22.3254 19.1434 22.4561 18.4492 22.4561H14.5498V18.9658H18.041Z" fill="white"/>
</svg>
