<svg width="16" height="18" viewBox="0 0 16 18" fill="none" xmlns="http://www.w3.org/2000/svg">
<path d="M14.9985 7.22226C14.9892 5.5306 14.9145 4.61437 14.3164 4.01704C13.6335 3.33337 12.5329 3.33337 10.3334 3.33337H8.00004C5.80049 3.33337 4.69993 3.33337 4.01704 4.01704C3.33337 4.69993 3.33337 5.80049 3.33337 8.00004V11.8889C3.33337 14.0885 3.33337 15.189 4.01704 15.8719C4.69993 16.5556 5.80049 16.5556 8.00004 16.5556H10.3334C12.5329 16.5556 13.6335 16.5556 14.3164 15.8719C15 15.189 15 14.0885 15 11.8889V11.1112" stroke="white" stroke-width="1.5" stroke-linecap="round"/>
<path d="M1 7.22222V11.8889C1 12.5077 1.24583 13.1012 1.68342 13.5388C2.121 13.9764 2.71449 14.2222 3.33333 14.2222M12.6667 3.33333C12.6667 2.71449 12.4208 2.121 11.9832 1.68342C11.5457 1.24583 10.9522 1 10.3333 1H7.22222C4.28922 1 2.82233 1 1.91156 1.91156C1.40289 2.41944 1.17811 3.1 1.07933 4.11111" stroke="white" stroke-width="1.5" stroke-linecap="round"/>
</svg>
