<svg width="49" height="49" viewBox="0 0 49 49" fill="none" xmlns="http://www.w3.org/2000/svg">
<path d="M24.3281 0C37.7642 0 48.6562 10.8921 48.6562 24.3281C48.6562 37.7642 37.7642 48.6562 24.3281 48.6562C10.8921 48.6562 0 37.7642 0 24.3281C2.9378e-05 10.8921 10.8921 2.93799e-05 24.3281 0ZM27.3223 12.1641C22.933 12.1641 21.3877 14.3767 21.3877 18.0977V20.8359H18.6523V25.3975H21.3877V38.6328H26.8643V25.3965H30.5176L31.002 20.8359H26.8643L26.8701 18.5527C26.8701 17.3631 26.9838 16.7256 28.6924 16.7256H30.9766V12.1641H27.3223Z" fill="white"/>
</svg>
