<svg width="49" height="49" viewBox="0 0 49 49" fill="none" xmlns="http://www.w3.org/2000/svg">
<path d="M24.3281 0C37.7642 0 48.6562 10.8921 48.6562 24.3281C48.6562 37.7642 37.7642 48.6562 24.3281 48.6562C10.8921 48.6562 0 37.7642 0 24.3281C2.9378e-05 10.8921 10.8921 2.93799e-05 24.3281 0ZM11.6787 36.7148H17.1924V20.1494H11.6787V36.7148ZM30.7275 19.7607C27.8005 19.7608 26.4896 21.3682 25.7578 22.4961V20.1504H20.2441C20.3166 21.7011 20.2446 36.6189 20.2441 36.7148H25.7578V27.4639C25.7578 26.9688 25.7937 26.4746 25.9395 26.1201C26.338 25.1312 27.2456 24.1075 28.7686 24.1074C30.7644 24.1074 31.5625 25.6265 31.5625 27.8525V36.7148H37.0752V27.2168C37.0752 22.1288 34.3555 19.7607 30.7275 19.7607ZM14.4727 12.1641C12.5866 12.1641 11.3535 13.4012 11.3535 15.0254C11.3535 16.6159 12.5496 17.8886 14.4004 17.8887H14.4355C16.3579 17.8887 17.5557 16.6159 17.5557 15.0254C17.5199 13.4013 16.3584 12.1643 14.4727 12.1641Z" fill="white"/>
</svg>
