<svg width="15" height="15" viewBox="0 0 15 15" fill="none" xmlns="http://www.w3.org/2000/svg">
<path d="M4.47554 1H2.73777C1.77803 1 1 1.77803 1 2.73777V4.47554C1 5.43528 1.77803 6.2133 2.73777 6.2133H4.47554C5.43528 6.2133 6.2133 5.43528 6.2133 4.47554V2.73777C6.2133 1.77803 5.43528 1 4.47554 1Z" stroke="white" stroke-width="1.5" stroke-linecap="round" stroke-linejoin="round"/>
<path d="M12.1217 1H10.3839C9.4242 1 8.64618 1.77803 8.64618 2.73777V4.47554C8.64618 5.43528 9.4242 6.2133 10.3839 6.2133H12.1217C13.0815 6.2133 13.8595 5.43528 13.8595 4.47554V2.73777C13.8595 1.77803 13.0815 1 12.1217 1Z" stroke="white" stroke-width="1.5" stroke-linecap="round" stroke-linejoin="round"/>
<path d="M4.47554 8.64624H2.73777C1.77803 8.64624 1 9.42427 1 10.384V12.1218C1 13.0815 1.77803 13.8595 2.73777 13.8595H4.47554C5.43528 13.8595 6.2133 13.0815 6.2133 12.1218V10.384C6.2133 9.42427 5.43528 8.64624 4.47554 8.64624Z" stroke="white" stroke-width="1.5" stroke-linecap="round" stroke-linejoin="round"/>
<path d="M4.64935 3.60663C4.64935 3.03078 4.18253 2.56396 3.60669 2.56396C3.03084 2.56396 2.56403 3.03078 2.56403 3.60663C2.56403 4.18247 3.03084 4.64929 3.60669 4.64929C4.18253 4.64929 4.64935 4.18247 4.64935 3.60663Z" fill="white"/>
<path d="M12.2955 3.60663C12.2955 3.03078 11.8287 2.56396 11.2529 2.56396C10.677 2.56396 10.2102 3.03078 10.2102 3.60663C10.2102 4.18247 10.677 4.64929 11.2529 4.64929C11.8287 4.64929 12.2955 4.18247 12.2955 3.60663Z" fill="white"/>
<path d="M4.64935 11.2529C4.64935 10.677 4.18253 10.2102 3.60669 10.2102C3.03084 10.2102 2.56403 10.677 2.56403 11.2529C2.56403 11.8287 3.03084 12.2955 3.60669 12.2955C4.18253 12.2955 4.64935 11.8287 4.64935 11.2529Z" fill="white"/>
<path d="M10.2101 9.16742C10.2101 8.59157 9.74332 8.12476 9.16748 8.12476C8.59163 8.12476 8.12482 8.59157 8.12482 9.16742C8.12482 9.74326 8.59163 10.2101 9.16748 10.2101C9.74332 10.2101 10.2101 9.74326 10.2101 9.16742Z" fill="white"/>
<path d="M12.2955 11.2529C12.2955 10.677 11.8287 10.2102 11.2529 10.2102C10.677 10.2102 10.2102 10.677 10.2102 11.2529C10.2102 11.8287 10.677 12.2955 11.2529 12.2955C11.8287 12.2955 12.2955 11.8287 12.2955 11.2529Z" fill="white"/>
<path d="M14.3807 13.3381C14.3807 12.7622 13.9139 12.2954 13.3381 12.2954C12.7622 12.2954 12.2954 12.7622 12.2954 13.3381C12.2954 13.9139 12.7622 14.3807 13.3381 14.3807C13.9139 14.3807 14.3807 13.9139 14.3807 13.3381Z" fill="white"/>
<path d="M14.3807 9.16742C14.3807 8.59157 13.9139 8.12476 13.3381 8.12476C12.7622 8.12476 12.2954 8.59157 12.2954 9.16742C12.2954 9.74326 12.7622 10.2101 13.3381 10.2101C13.9139 10.2101 14.3807 9.74326 14.3807 9.16742Z" fill="white"/>
<path d="M10.2101 13.3381C10.2101 12.7622 9.74332 12.2954 9.16748 12.2954C8.59163 12.2954 8.12482 12.7622 8.12482 13.3381C8.12482 13.9139 8.59163 14.3807 9.16748 14.3807C9.74332 14.3807 10.2101 13.9139 10.2101 13.3381Z" fill="white"/>
</svg>
