<svg width="195" height="195" viewBox="0 0 195 195" fill="none" xmlns="http://www.w3.org/2000/svg">
<rect width="195" height="195" rx="12" fill="white"/>
<path d="M77.9499 17.7942H17.7944V77.9496H77.9499V17.7942ZM67.924 67.9237H27.8203V27.8201H67.924V67.9237Z" fill="black"/>
<path d="M37.8462 37.8459H57.898V57.8978H37.8462V37.8459ZM17.7944 178.209H77.9499V118.053H17.7944V178.209ZM27.8203 128.079H67.924V168.183H27.8203V128.079Z" fill="black"/>
<path d="M37.8457 138.105H57.8975V158.157H37.8457V138.105ZM118.053 17.7942V77.9496H178.208V17.7942H118.053ZM168.182 67.9237H128.079V27.8201H168.182V67.9237Z" fill="black"/>
<path d="M138.105 37.846H158.157V57.8978H138.105V37.846ZM37.8462 87.9755H17.7944V108.027H47.8721V98.0014H37.8462V87.9755ZM87.9758 108.027H108.028V128.079H87.9758V108.027ZM47.8721 87.9755H67.924V98.0014H47.8721V87.9755ZM108.028 138.105H87.9758V148.131H98.0017V158.157H108.028V148.131V138.105ZM77.9499 87.9755V98.0014H67.924V108.027H87.9758V87.9755H77.9499ZM98.0017 57.8978H108.028V77.9496H98.0017V57.8978ZM108.028 98.0014V108.027H128.079V87.9755H98.0017V98.0014H108.028ZM87.9758 77.9496H98.0017V87.9755H87.9758V77.9496ZM108.028 158.157H128.079V178.209H108.028V158.157ZM87.9758 158.157H98.0017V178.209H87.9758V158.157ZM108.028 128.079H118.053V138.105H108.028V128.079ZM108.028 47.8719V27.8201H98.0017V17.7942H87.9758V57.8978H98.0017V47.8719H108.028ZM138.105 158.157H148.131V178.209H138.105V158.157ZM138.105 138.105H158.157V148.131H138.105V138.105ZM128.079 148.131H138.105V158.157H128.079V148.131ZM118.053 138.105H128.079V148.131H118.053V138.105ZM158.157 118.053V128.079H168.183V138.105H178.209V118.053H168.183H158.157ZM168.183 148.131H158.157V178.209H178.209V158.157H168.183V148.131ZM118.053 118.053V128.079H148.131V108.027H128.079V118.053H118.053ZM138.105 87.9755V98.0014H158.157V108.027H178.209V87.9755H158.157H138.105Z" fill="black"/>
</svg>
