<svg width="23" height="29" viewBox="0 0 23 29" fill="none" xmlns="http://www.w3.org/2000/svg">
<path d="M6.177 0.916504C2.68794 0.916504 0.708252 2.92037 0.708252 6.45332V27.2163C0.708252 28.21 1.68579 28.9054 2.58813 28.514L11.6458 24.5776L20.661 28.514C21.5633 28.9054 22.5833 28.21 22.5833 27.2163V6.45332C22.5833 2.82201 20.7991 0.916504 17.1145 0.916504H6.177ZM6.177 3.68484H17.1145C19.2555 3.68484 19.8489 4.31867 19.8489 6.45332V25.14L12.1584 21.8093C11.8139 21.6601 11.4338 21.6601 11.0907 21.8093L3.44263 25.14V6.45332C3.44263 4.44932 4.19731 3.68484 6.177 3.68484Z" fill="white"/>
</svg>
