<svg width="14" height="16" viewBox="0 0 14 16" fill="none" xmlns="http://www.w3.org/2000/svg">
<path d="M11.8 5.66667L11.128 12.1984C11.0264 13.1886 10.976 13.6832 10.744 14.0573C10.5405 14.3866 10.2413 14.65 9.884 14.8141C9.4784 15 8.968 15 7.944 15H6.056C5.0328 15 4.5216 15 4.116 14.8133C3.75844 14.6493 3.45889 14.386 3.2552 14.0566C3.0248 13.6832 2.9736 13.1886 2.8712 12.1984L2.2 5.66667M8.2 10.7222V6.83333M5.8 10.7222V6.83333M1 3.72222H4.692M4.692 3.72222L5.0008 1.644C5.0904 1.266 5.4136 1 5.7848 1H8.2152C8.5864 1 8.9088 1.266 8.9992 1.644L9.308 3.72222M4.692 3.72222H9.308M9.308 3.72222H13" stroke="#ED5E5E" stroke-width="1.5" stroke-linecap="round" stroke-linejoin="round"/>
</svg>
