<svg width="49" height="49" viewBox="0 0 49 49" fill="none" xmlns="http://www.w3.org/2000/svg">
<path d="M24.3281 0C37.7642 0 48.6562 10.8921 48.6562 24.3281C48.6562 37.7642 37.7642 48.6562 24.3281 48.6562C10.8921 48.6562 0 37.7642 0 24.3281C2.9378e-05 10.8921 10.8921 2.93799e-05 24.3281 0ZM29.8955 14.7578C29.0278 14.5174 27.7008 14.5514 26.918 14.8262C24.7908 15.5993 23.4465 17.5926 23.5996 19.7744L23.6504 20.6162L22.7998 20.5127C19.7027 20.1176 16.9965 18.7779 14.6992 16.5273L13.5762 15.4102L13.2871 16.2354C12.6745 18.0735 13.0657 20.0147 14.3418 21.3203C15.0225 22.0419 14.8694 22.1453 13.6953 21.7158C13.2873 21.5785 12.9301 21.4752 12.8955 21.5264C12.7764 21.6466 13.1845 23.2106 13.5078 23.8291C13.9503 24.688 14.8529 25.5292 15.8398 26.0273L16.6729 26.4229L15.6865 26.4404C14.7336 26.4404 14.6997 26.4576 14.8018 26.8184C15.1423 27.9349 16.4861 29.1204 17.9834 29.6357L19.0391 29.9961L18.1201 30.5459C16.7589 31.3361 15.1591 31.783 13.5596 31.8174C12.7938 31.8346 12.1641 31.9035 12.1641 31.9551C12.1668 32.1278 14.2408 33.0891 15.4482 33.4668C19.0728 34.5834 23.3781 34.1022 26.6113 32.1953C28.9086 30.8381 31.2062 28.1406 32.2783 25.5293C32.8568 24.1378 33.4354 21.5958 33.4355 20.376C33.4355 19.5857 33.4865 19.482 34.4395 18.5371C35.0004 17.9879 35.5271 17.3872 35.6299 17.2148C35.8 16.8885 35.7834 16.8878 34.916 17.1797C33.4696 17.6951 33.2648 17.6266 33.9795 16.8535C34.5069 16.3039 35.1365 15.3079 35.1367 15.0156C35.1367 14.9641 34.8819 15.0497 34.5928 15.2041C34.2865 15.3759 33.6052 15.6335 33.0947 15.7881L32.1758 16.0811L31.3418 15.5137C30.8823 15.2045 30.2358 14.8609 29.8955 14.7578Z" fill="white"/>
</svg>
