<svg width="29" height="25" viewBox="0 0 29 25" fill="none" xmlns="http://www.w3.org/2000/svg">
<path d="M19.5781 0.0415039C16.1349 0.0415039 13.3438 2.81679 13.3438 6.23942C13.3438 9.66205 16.1349 12.4373 19.5781 12.4373C23.0213 12.4373 25.8125 9.66205 25.8125 6.23942C25.8125 2.81679 23.0213 0.0415039 19.5781 0.0415039ZM9.1875 1.41882C6.12698 1.41882 3.64583 3.88559 3.64583 6.92808C3.64583 9.97057 6.12698 12.4373 9.1875 12.4373C10.3366 12.4373 11.4249 12.0889 12.3479 11.4471C12.9751 11.0118 13.1326 10.1345 12.6943 9.51054C12.2559 8.88662 11.4165 8.77369 10.7893 9.20892C10.3281 9.52983 9.76411 9.68271 9.1875 9.68271C7.65717 9.68271 6.41667 8.45001 6.41667 6.92808C6.41667 5.40615 7.65717 4.17345 9.1875 4.17345C9.63942 4.17345 10.0528 4.27261 10.443 4.47507C11.1218 4.82629 11.9949 4.58941 12.3479 3.91453C12.7011 3.24102 12.4206 2.3719 11.7419 2.02207C10.959 1.61714 10.0872 1.41882 9.1875 1.41882ZM19.5781 2.79613C21.491 2.79613 23.0417 4.33735 23.0417 6.23942C23.0417 8.14149 21.491 9.68271 19.5781 9.68271C17.6653 9.68271 16.1146 8.14149 16.1146 6.23942C16.1146 4.33735 17.6653 2.79613 19.5781 2.79613ZM5.11784 14.2884C2.57685 15.3311 0.875 17.886 0.875 20.7012V23.4559C0.875 24.2161 1.49525 24.8332 2.26042 24.8332H7.80208C8.56725 24.8332 9.1875 24.2161 9.1875 23.4559C9.1875 22.6956 8.56725 22.0785 7.80208 22.0785H3.64583V20.7012C3.64583 19.1531 4.56949 17.7318 5.63113 17.1065C6.6296 17.5252 7.68585 17.8419 8.62516 17.9205C9.38769 17.9852 10.0753 17.4136 10.14 16.6547C10.2047 15.8972 9.6537 15.2554 8.8913 15.1906C8.2831 15.1397 7.61838 14.9578 6.84961 14.6328C6.66396 14.5543 6.55618 14.4923 6.20026 14.3311C5.85128 14.1728 5.47223 14.1424 5.11784 14.2884ZM14.8158 14.2884C12.2748 15.3311 10.5729 17.886 10.5729 20.7012V23.4559C10.5729 24.2161 11.1932 24.8332 11.9583 24.8332H27.1979C27.9631 24.8332 28.5833 24.2161 28.5833 23.4559V20.7012C28.5833 17.9521 26.8721 15.4592 24.3405 14.3738C23.9842 14.221 23.569 14.2168 23.2148 14.3738C21.989 14.9206 20.7948 15.192 19.5781 15.192C18.3656 15.192 17.1672 14.9055 15.8982 14.3311C15.5492 14.1728 15.1701 14.1424 14.8158 14.2884ZM15.3484 17.1065C16.6574 17.5995 18.2355 17.9466 19.5781 17.9466C20.9102 17.9466 22.4231 17.6229 23.7056 17.1518C24.956 17.8598 25.8125 19.1848 25.8125 20.7012V22.0785H13.3438V20.7012C13.3438 19.0967 14.2524 17.7442 15.3484 17.1065Z" fill="white"/>
</svg>
